<mxfile host="app.diagrams.net" agent="Mozilla/5.0 (Windows NT 10.0; Win64; x64) AppleWebKit/537.36 (KHTML, like Gecko) Chrome/128.0.0.0 YaBrowser/24.10.0.0 Safari/537.36" version="24.8.4">
  <diagram id="Q3700qw2erzk5v5Ac9q-" name="Страница — 2">
    <mxGraphModel dx="3894" dy="3296" grid="1" gridSize="10" guides="1" tooltips="1" connect="1" arrows="1" fold="1" page="1" pageScale="1" pageWidth="827" pageHeight="1169" math="0" shadow="0">
      <root>
        <mxCell id="0" />
        <mxCell id="1" parent="0" />
        <mxCell id="ljMkYENFZzZCaW7aI6AF-1" value="organizations" style="swimlane;fontStyle=0;childLayout=stackLayout;horizontal=1;startSize=26;fillColor=none;horizontalStack=0;resizeParent=1;resizeParentMax=0;resizeLast=0;collapsible=1;marginBottom=0;whiteSpace=wrap;html=1;" parent="1" vertex="1">
          <mxGeometry x="-1170" y="-1790" width="180" height="104" as="geometry" />
        </mxCell>
        <mxCell id="ljMkYENFZzZCaW7aI6AF-2" value="id SERIAL PK" style="text;strokeColor=none;fillColor=none;align=left;verticalAlign=top;spacingLeft=4;spacingRight=4;overflow=hidden;rotatable=0;points=[[0,0.5],[1,0.5]];portConstraint=eastwest;whiteSpace=wrap;html=1;" parent="ljMkYENFZzZCaW7aI6AF-1" vertex="1">
          <mxGeometry y="26" width="180" height="26" as="geometry" />
        </mxCell>
        <mxCell id="ljMkYENFZzZCaW7aI6AF-3" value="title VARCHAR(50) NOT NULL" style="text;strokeColor=none;fillColor=none;align=left;verticalAlign=top;spacingLeft=4;spacingRight=4;overflow=hidden;rotatable=0;points=[[0,0.5],[1,0.5]];portConstraint=eastwest;whiteSpace=wrap;html=1;" parent="ljMkYENFZzZCaW7aI6AF-1" vertex="1">
          <mxGeometry y="52" width="180" height="26" as="geometry" />
        </mxCell>
        <mxCell id="ljMkYENFZzZCaW7aI6AF-4" value="comment TEXT" style="text;strokeColor=none;fillColor=none;align=left;verticalAlign=top;spacingLeft=4;spacingRight=4;overflow=hidden;rotatable=0;points=[[0,0.5],[1,0.5]];portConstraint=eastwest;whiteSpace=wrap;html=1;" parent="ljMkYENFZzZCaW7aI6AF-1" vertex="1">
          <mxGeometry y="78" width="180" height="26" as="geometry" />
        </mxCell>
        <mxCell id="ljMkYENFZzZCaW7aI6AF-5" value="department" style="swimlane;fontStyle=0;childLayout=stackLayout;horizontal=1;startSize=26;fillColor=none;horizontalStack=0;resizeParent=1;resizeParentMax=0;resizeLast=0;collapsible=1;marginBottom=0;whiteSpace=wrap;html=1;" parent="1" vertex="1">
          <mxGeometry x="-1280" y="-1633" width="230" height="156" as="geometry" />
        </mxCell>
        <mxCell id="ljMkYENFZzZCaW7aI6AF-6" value="id SERIAL PK" style="text;strokeColor=none;fillColor=none;align=left;verticalAlign=top;spacingLeft=4;spacingRight=4;overflow=hidden;rotatable=0;points=[[0,0.5],[1,0.5]];portConstraint=eastwest;whiteSpace=wrap;html=1;" parent="ljMkYENFZzZCaW7aI6AF-5" vertex="1">
          <mxGeometry y="26" width="230" height="26" as="geometry" />
        </mxCell>
        <mxCell id="ljMkYENFZzZCaW7aI6AF-7" value="title VARCHAR(50) NOT NULL" style="text;strokeColor=none;fillColor=none;align=left;verticalAlign=top;spacingLeft=4;spacingRight=4;overflow=hidden;rotatable=0;points=[[0,0.5],[1,0.5]];portConstraint=eastwest;whiteSpace=wrap;html=1;" parent="ljMkYENFZzZCaW7aI6AF-5" vertex="1">
          <mxGeometry y="52" width="230" height="26" as="geometry" />
        </mxCell>
        <mxCell id="ljMkYENFZzZCaW7aI6AF-8" value="comment VARCHAR(50)&amp;nbsp;" style="text;strokeColor=none;fillColor=none;align=left;verticalAlign=top;spacingLeft=4;spacingRight=4;overflow=hidden;rotatable=0;points=[[0,0.5],[1,0.5]];portConstraint=eastwest;whiteSpace=wrap;html=1;" parent="ljMkYENFZzZCaW7aI6AF-5" vertex="1">
          <mxGeometry y="78" width="230" height="26" as="geometry" />
        </mxCell>
        <mxCell id="ljMkYENFZzZCaW7aI6AF-9" value="parent INT FK" style="text;strokeColor=none;fillColor=none;align=left;verticalAlign=top;spacingLeft=4;spacingRight=4;overflow=hidden;rotatable=0;points=[[0,0.5],[1,0.5]];portConstraint=eastwest;whiteSpace=wrap;html=1;" parent="ljMkYENFZzZCaW7aI6AF-5" vertex="1">
          <mxGeometry y="104" width="230" height="26" as="geometry" />
        </mxCell>
        <mxCell id="ljMkYENFZzZCaW7aI6AF-10" value="organization_id INT F&lt;span style=&quot;background-color: initial;&quot;&gt;K&lt;/span&gt;" style="text;strokeColor=none;fillColor=none;align=left;verticalAlign=top;spacingLeft=4;spacingRight=4;overflow=hidden;rotatable=0;points=[[0,0.5],[1,0.5]];portConstraint=eastwest;whiteSpace=wrap;html=1;" parent="ljMkYENFZzZCaW7aI6AF-5" vertex="1">
          <mxGeometry y="130" width="230" height="26" as="geometry" />
        </mxCell>
        <mxCell id="ljMkYENFZzZCaW7aI6AF-136" value="" style="endArrow=none;html=1;edgeStyle=orthogonalEdgeStyle;rounded=0;exitX=0;exitY=0.5;exitDx=0;exitDy=0;entryX=0;entryY=0.5;entryDx=0;entryDy=0;" parent="ljMkYENFZzZCaW7aI6AF-5" source="ljMkYENFZzZCaW7aI6AF-9" target="ljMkYENFZzZCaW7aI6AF-6" edge="1">
          <mxGeometry relative="1" as="geometry">
            <mxPoint x="-110.02999999999997" y="174" as="sourcePoint" />
            <mxPoint x="-40" y="-220" as="targetPoint" />
            <Array as="points">
              <mxPoint x="-50" y="117" />
              <mxPoint x="-50" y="39" />
            </Array>
          </mxGeometry>
        </mxCell>
        <mxCell id="ljMkYENFZzZCaW7aI6AF-137" value="*" style="edgeLabel;resizable=0;html=1;align=left;verticalAlign=bottom;" parent="ljMkYENFZzZCaW7aI6AF-136" connectable="0" vertex="1">
          <mxGeometry x="-1" relative="1" as="geometry">
            <mxPoint x="-10" as="offset" />
          </mxGeometry>
        </mxCell>
        <mxCell id="ljMkYENFZzZCaW7aI6AF-138" value="1" style="edgeLabel;resizable=0;html=1;align=right;verticalAlign=bottom;" parent="ljMkYENFZzZCaW7aI6AF-136" connectable="0" vertex="1">
          <mxGeometry x="1" relative="1" as="geometry">
            <mxPoint x="-10" as="offset" />
          </mxGeometry>
        </mxCell>
        <mxCell id="ljMkYENFZzZCaW7aI6AF-11" value="position" style="swimlane;fontStyle=0;childLayout=stackLayout;horizontal=1;startSize=26;fillColor=none;horizontalStack=0;resizeParent=1;resizeParentMax=0;resizeLast=0;collapsible=1;marginBottom=0;whiteSpace=wrap;html=1;" parent="1" vertex="1">
          <mxGeometry x="-965" y="-1711" width="140" height="78" as="geometry" />
        </mxCell>
        <mxCell id="ljMkYENFZzZCaW7aI6AF-12" value="id SERIAL PK" style="text;strokeColor=none;fillColor=none;align=left;verticalAlign=top;spacingLeft=4;spacingRight=4;overflow=hidden;rotatable=0;points=[[0,0.5],[1,0.5]];portConstraint=eastwest;whiteSpace=wrap;html=1;" parent="ljMkYENFZzZCaW7aI6AF-11" vertex="1">
          <mxGeometry y="26" width="140" height="26" as="geometry" />
        </mxCell>
        <mxCell id="ljMkYENFZzZCaW7aI6AF-13" value="title VARCHAR(50)" style="text;strokeColor=none;fillColor=none;align=left;verticalAlign=top;spacingLeft=4;spacingRight=4;overflow=hidden;rotatable=0;points=[[0,0.5],[1,0.5]];portConstraint=eastwest;whiteSpace=wrap;html=1;" parent="ljMkYENFZzZCaW7aI6AF-11" vertex="1">
          <mxGeometry y="52" width="140" height="26" as="geometry" />
        </mxCell>
        <mxCell id="ljMkYENFZzZCaW7aI6AF-14" value="employee" style="swimlane;fontStyle=0;childLayout=stackLayout;horizontal=1;startSize=26;fillColor=none;horizontalStack=0;resizeParent=1;resizeParentMax=0;resizeLast=0;collapsible=1;marginBottom=0;whiteSpace=wrap;html=1;" parent="1" vertex="1">
          <mxGeometry x="-680" y="-1840" width="230" height="494" as="geometry" />
        </mxCell>
        <mxCell id="ljMkYENFZzZCaW7aI6AF-15" value="id SERIAL PK" style="text;strokeColor=none;fillColor=none;align=left;verticalAlign=top;spacingLeft=4;spacingRight=4;overflow=hidden;rotatable=0;points=[[0,0.5],[1,0.5]];portConstraint=eastwest;whiteSpace=wrap;html=1;" parent="ljMkYENFZzZCaW7aI6AF-14" vertex="1">
          <mxGeometry y="26" width="230" height="26" as="geometry" />
        </mxCell>
        <mxCell id="ljMkYENFZzZCaW7aI6AF-17" value="name VARCHAR(50)" style="text;strokeColor=none;fillColor=none;align=left;verticalAlign=top;spacingLeft=4;spacingRight=4;overflow=hidden;rotatable=0;points=[[0,0.5],[1,0.5]];portConstraint=eastwest;whiteSpace=wrap;html=1;" parent="ljMkYENFZzZCaW7aI6AF-14" vertex="1">
          <mxGeometry y="52" width="230" height="26" as="geometry" />
        </mxCell>
        <mxCell id="ljMkYENFZzZCaW7aI6AF-16" value="surname VARCHAR(50)" style="text;strokeColor=none;fillColor=none;align=left;verticalAlign=top;spacingLeft=4;spacingRight=4;overflow=hidden;rotatable=0;points=[[0,0.5],[1,0.5]];portConstraint=eastwest;whiteSpace=wrap;html=1;" parent="ljMkYENFZzZCaW7aI6AF-14" vertex="1">
          <mxGeometry y="78" width="230" height="26" as="geometry" />
        </mxCell>
        <mxCell id="ljMkYENFZzZCaW7aI6AF-18" value="patronymic VARCHAR(50)" style="text;strokeColor=none;fillColor=none;align=left;verticalAlign=top;spacingLeft=4;spacingRight=4;overflow=hidden;rotatable=0;points=[[0,0.5],[1,0.5]];portConstraint=eastwest;whiteSpace=wrap;html=1;" parent="ljMkYENFZzZCaW7aI6AF-14" vertex="1">
          <mxGeometry y="104" width="230" height="26" as="geometry" />
        </mxCell>
        <mxCell id="ljMkYENFZzZCaW7aI6AF-19" value="position_id INT FK" style="text;strokeColor=none;fillColor=none;align=left;verticalAlign=top;spacingLeft=4;spacingRight=4;overflow=hidden;rotatable=0;points=[[0,0.5],[1,0.5]];portConstraint=eastwest;whiteSpace=wrap;html=1;" parent="ljMkYENFZzZCaW7aI6AF-14" vertex="1">
          <mxGeometry y="130" width="230" height="26" as="geometry" />
        </mxCell>
        <mxCell id="ljMkYENFZzZCaW7aI6AF-20" value="date_of_birth DATE" style="text;strokeColor=none;fillColor=none;align=left;verticalAlign=top;spacingLeft=4;spacingRight=4;overflow=hidden;rotatable=0;points=[[0,0.5],[1,0.5]];portConstraint=eastwest;whiteSpace=wrap;html=1;" parent="ljMkYENFZzZCaW7aI6AF-14" vertex="1">
          <mxGeometry y="156" width="230" height="26" as="geometry" />
        </mxCell>
        <mxCell id="ljMkYENFZzZCaW7aI6AF-21" value="passport_series VARCHAR(4)" style="text;strokeColor=none;fillColor=none;align=left;verticalAlign=top;spacingLeft=4;spacingRight=4;overflow=hidden;rotatable=0;points=[[0,0.5],[1,0.5]];portConstraint=eastwest;whiteSpace=wrap;html=1;" parent="ljMkYENFZzZCaW7aI6AF-14" vertex="1">
          <mxGeometry y="182" width="230" height="26" as="geometry" />
        </mxCell>
        <mxCell id="ljMkYENFZzZCaW7aI6AF-22" value="passport_number VARCHAR(6)" style="text;strokeColor=none;fillColor=none;align=left;verticalAlign=top;spacingLeft=4;spacingRight=4;overflow=hidden;rotatable=0;points=[[0,0.5],[1,0.5]];portConstraint=eastwest;whiteSpace=wrap;html=1;" parent="ljMkYENFZzZCaW7aI6AF-14" vertex="1">
          <mxGeometry y="208" width="230" height="26" as="geometry" />
        </mxCell>
        <mxCell id="ljMkYENFZzZCaW7aI6AF-23" value="date_of_issue DATE" style="text;strokeColor=none;fillColor=none;align=left;verticalAlign=top;spacingLeft=4;spacingRight=4;overflow=hidden;rotatable=0;points=[[0,0.5],[1,0.5]];portConstraint=eastwest;whiteSpace=wrap;html=1;" parent="ljMkYENFZzZCaW7aI6AF-14" vertex="1">
          <mxGeometry y="234" width="230" height="26" as="geometry" />
        </mxCell>
        <mxCell id="ljMkYENFZzZCaW7aI6AF-24" value="department_code VARCHAR(10)" style="text;strokeColor=none;fillColor=none;align=left;verticalAlign=top;spacingLeft=4;spacingRight=4;overflow=hidden;rotatable=0;points=[[0,0.5],[1,0.5]];portConstraint=eastwest;whiteSpace=wrap;html=1;" parent="ljMkYENFZzZCaW7aI6AF-14" vertex="1">
          <mxGeometry y="260" width="230" height="26" as="geometry" />
        </mxCell>
        <mxCell id="ljMkYENFZzZCaW7aI6AF-25" value="passport_authority_code VARCHAR(50)" style="text;strokeColor=none;fillColor=none;align=left;verticalAlign=top;spacingLeft=4;spacingRight=4;overflow=hidden;rotatable=0;points=[[0,0.5],[1,0.5]];portConstraint=eastwest;whiteSpace=wrap;html=1;" parent="ljMkYENFZzZCaW7aI6AF-14" vertex="1">
          <mxGeometry y="286" width="230" height="26" as="geometry" />
        </mxCell>
        <mxCell id="ljMkYENFZzZCaW7aI6AF-26" value="passport_issued_by VARCHAR(50)" style="text;strokeColor=none;fillColor=none;align=left;verticalAlign=top;spacingLeft=4;spacingRight=4;overflow=hidden;rotatable=0;points=[[0,0.5],[1,0.5]];portConstraint=eastwest;whiteSpace=wrap;html=1;" parent="ljMkYENFZzZCaW7aI6AF-14" vertex="1">
          <mxGeometry y="312" width="230" height="26" as="geometry" />
        </mxCell>
        <mxCell id="ljMkYENFZzZCaW7aI6AF-27" value="region VARCHAR(50)" style="text;strokeColor=none;fillColor=none;align=left;verticalAlign=top;spacingLeft=4;spacingRight=4;overflow=hidden;rotatable=0;points=[[0,0.5],[1,0.5]];portConstraint=eastwest;whiteSpace=wrap;html=1;" parent="ljMkYENFZzZCaW7aI6AF-14" vertex="1">
          <mxGeometry y="338" width="230" height="26" as="geometry" />
        </mxCell>
        <mxCell id="ljMkYENFZzZCaW7aI6AF-28" value="city VARCHAR(50)" style="text;strokeColor=none;fillColor=none;align=left;verticalAlign=top;spacingLeft=4;spacingRight=4;overflow=hidden;rotatable=0;points=[[0,0.5],[1,0.5]];portConstraint=eastwest;whiteSpace=wrap;html=1;" parent="ljMkYENFZzZCaW7aI6AF-14" vertex="1">
          <mxGeometry y="364" width="230" height="26" as="geometry" />
        </mxCell>
        <mxCell id="ljMkYENFZzZCaW7aI6AF-29" value="house VARCHAR(10)" style="text;strokeColor=none;fillColor=none;align=left;verticalAlign=top;spacingLeft=4;spacingRight=4;overflow=hidden;rotatable=0;points=[[0,0.5],[1,0.5]];portConstraint=eastwest;whiteSpace=wrap;html=1;" parent="ljMkYENFZzZCaW7aI6AF-14" vertex="1">
          <mxGeometry y="390" width="230" height="26" as="geometry" />
        </mxCell>
        <mxCell id="ljMkYENFZzZCaW7aI6AF-30" value="building VARCHAR(10)" style="text;strokeColor=none;fillColor=none;align=left;verticalAlign=top;spacingLeft=4;spacingRight=4;overflow=hidden;rotatable=0;points=[[0,0.5],[1,0.5]];portConstraint=eastwest;whiteSpace=wrap;html=1;" parent="ljMkYENFZzZCaW7aI6AF-14" vertex="1">
          <mxGeometry y="416" width="230" height="26" as="geometry" />
        </mxCell>
        <mxCell id="ljMkYENFZzZCaW7aI6AF-31" value="apartment VARCHAR(10)" style="text;strokeColor=none;fillColor=none;align=left;verticalAlign=top;spacingLeft=4;spacingRight=4;overflow=hidden;rotatable=0;points=[[0,0.5],[1,0.5]];portConstraint=eastwest;whiteSpace=wrap;html=1;" parent="ljMkYENFZzZCaW7aI6AF-14" vertex="1">
          <mxGeometry y="442" width="230" height="26" as="geometry" />
        </mxCell>
        <mxCell id="ljMkYENFZzZCaW7aI6AF-33" value="department_id INT FK" style="text;strokeColor=none;fillColor=none;align=left;verticalAlign=top;spacingLeft=4;spacingRight=4;overflow=hidden;rotatable=0;points=[[0,0.5],[1,0.5]];portConstraint=eastwest;whiteSpace=wrap;html=1;" parent="ljMkYENFZzZCaW7aI6AF-14" vertex="1">
          <mxGeometry y="468" width="230" height="26" as="geometry" />
        </mxCell>
        <mxCell id="ljMkYENFZzZCaW7aI6AF-36" value="hr_operations" style="swimlane;fontStyle=0;childLayout=stackLayout;horizontal=1;startSize=26;fillColor=none;horizontalStack=0;resizeParent=1;resizeParentMax=0;resizeLast=0;collapsible=1;marginBottom=0;whiteSpace=wrap;html=1;" parent="1" vertex="1">
          <mxGeometry x="-965" y="-1570" width="210" height="234" as="geometry" />
        </mxCell>
        <mxCell id="ljMkYENFZzZCaW7aI6AF-37" value="id SERIAL PK" style="text;strokeColor=none;fillColor=none;align=left;verticalAlign=top;spacingLeft=4;spacingRight=4;overflow=hidden;rotatable=0;points=[[0,0.5],[1,0.5]];portConstraint=eastwest;whiteSpace=wrap;html=1;" parent="ljMkYENFZzZCaW7aI6AF-36" vertex="1">
          <mxGeometry y="26" width="210" height="26" as="geometry" />
        </mxCell>
        <mxCell id="ljMkYENFZzZCaW7aI6AF-140" value="operation_type VARCHAR(50)" style="text;strokeColor=none;fillColor=none;align=left;verticalAlign=top;spacingLeft=4;spacingRight=4;overflow=hidden;rotatable=0;points=[[0,0.5],[1,0.5]];portConstraint=eastwest;whiteSpace=wrap;html=1;" parent="ljMkYENFZzZCaW7aI6AF-36" vertex="1">
          <mxGeometry y="52" width="210" height="26" as="geometry" />
        </mxCell>
        <mxCell id="fJwojF4uo3lJMWS2JPwV-10" value="eployee_id INT FK" style="text;strokeColor=none;fillColor=none;align=left;verticalAlign=top;spacingLeft=4;spacingRight=4;overflow=hidden;rotatable=0;points=[[0,0.5],[1,0.5]];portConstraint=eastwest;whiteSpace=wrap;html=1;" parent="ljMkYENFZzZCaW7aI6AF-36" vertex="1">
          <mxGeometry y="78" width="210" height="26" as="geometry" />
        </mxCell>
        <mxCell id="fJwojF4uo3lJMWS2JPwV-16" value="is_fired BOOLEAN" style="text;strokeColor=none;fillColor=none;align=left;verticalAlign=top;spacingLeft=4;spacingRight=4;overflow=hidden;rotatable=0;points=[[0,0.5],[1,0.5]];portConstraint=eastwest;whiteSpace=wrap;html=1;" parent="ljMkYENFZzZCaW7aI6AF-36" vertex="1">
          <mxGeometry y="104" width="210" height="26" as="geometry" />
        </mxCell>
        <mxCell id="ljMkYENFZzZCaW7aI6AF-94" value="department_id INT F&lt;span style=&quot;background-color: initial;&quot;&gt;K&lt;/span&gt;" style="text;strokeColor=none;fillColor=none;align=left;verticalAlign=top;spacingLeft=4;spacingRight=4;overflow=hidden;rotatable=0;points=[[0,0.5],[1,0.5]];portConstraint=eastwest;whiteSpace=wrap;html=1;" parent="ljMkYENFZzZCaW7aI6AF-36" vertex="1">
          <mxGeometry y="130" width="210" height="26" as="geometry" />
        </mxCell>
        <mxCell id="fJwojF4uo3lJMWS2JPwV-8" value="position_id INT F&lt;span style=&quot;background-color: initial;&quot;&gt;K&lt;/span&gt;" style="text;strokeColor=none;fillColor=none;align=left;verticalAlign=top;spacingLeft=4;spacingRight=4;overflow=hidden;rotatable=0;points=[[0,0.5],[1,0.5]];portConstraint=eastwest;whiteSpace=wrap;html=1;" parent="ljMkYENFZzZCaW7aI6AF-36" vertex="1">
          <mxGeometry y="156" width="210" height="26" as="geometry" />
        </mxCell>
        <mxCell id="fJwojF4uo3lJMWS2JPwV-9" value="salary INT" style="text;strokeColor=none;fillColor=none;align=left;verticalAlign=top;spacingLeft=4;spacingRight=4;overflow=hidden;rotatable=0;points=[[0,0.5],[1,0.5]];portConstraint=eastwest;whiteSpace=wrap;html=1;" parent="ljMkYENFZzZCaW7aI6AF-36" vertex="1">
          <mxGeometry y="182" width="210" height="26" as="geometry" />
        </mxCell>
        <mxCell id="fJwojF4uo3lJMWS2JPwV-13" value="" style="endArrow=none;html=1;edgeStyle=orthogonalEdgeStyle;rounded=0;exitX=0;exitY=0.5;exitDx=0;exitDy=0;" parent="ljMkYENFZzZCaW7aI6AF-36" source="ljMkYENFZzZCaW7aI6AF-94" edge="1">
          <mxGeometry relative="1" as="geometry">
            <mxPoint x="255" y="443" as="sourcePoint" />
            <mxPoint x="-85" y="-30" as="targetPoint" />
            <Array as="points">
              <mxPoint x="-45" y="143" />
              <mxPoint x="-45" y="-30" />
            </Array>
          </mxGeometry>
        </mxCell>
        <mxCell id="fJwojF4uo3lJMWS2JPwV-14" value="*" style="edgeLabel;resizable=0;html=1;align=left;verticalAlign=bottom;" parent="fJwojF4uo3lJMWS2JPwV-13" connectable="0" vertex="1">
          <mxGeometry x="-1" relative="1" as="geometry">
            <mxPoint x="-15" y="-3" as="offset" />
          </mxGeometry>
        </mxCell>
        <mxCell id="fJwojF4uo3lJMWS2JPwV-15" value="1" style="edgeLabel;resizable=0;html=1;align=right;verticalAlign=bottom;" parent="fJwojF4uo3lJMWS2JPwV-13" connectable="0" vertex="1">
          <mxGeometry x="1" relative="1" as="geometry">
            <mxPoint x="10" y="20" as="offset" />
          </mxGeometry>
        </mxCell>
        <mxCell id="fJwojF4uo3lJMWS2JPwV-11" value="change_date_and_time TIMESTAMP" style="text;strokeColor=none;fillColor=none;align=left;verticalAlign=top;spacingLeft=4;spacingRight=4;overflow=hidden;rotatable=0;points=[[0,0.5],[1,0.5]];portConstraint=eastwest;whiteSpace=wrap;html=1;" parent="ljMkYENFZzZCaW7aI6AF-36" vertex="1">
          <mxGeometry y="208" width="210" height="26" as="geometry" />
        </mxCell>
        <mxCell id="ljMkYENFZzZCaW7aI6AF-42" value="files" style="swimlane;fontStyle=0;childLayout=stackLayout;horizontal=1;startSize=26;fillColor=none;horizontalStack=0;resizeParent=1;resizeParentMax=0;resizeLast=0;collapsible=1;marginBottom=0;whiteSpace=wrap;html=1;" parent="1" vertex="1">
          <mxGeometry x="-970" y="-1860" width="170" height="104" as="geometry" />
        </mxCell>
        <mxCell id="ljMkYENFZzZCaW7aI6AF-43" value="id SERIAL PK" style="text;strokeColor=none;fillColor=none;align=left;verticalAlign=top;spacingLeft=4;spacingRight=4;overflow=hidden;rotatable=0;points=[[0,0.5],[1,0.5]];portConstraint=eastwest;whiteSpace=wrap;html=1;" parent="ljMkYENFZzZCaW7aI6AF-42" vertex="1">
          <mxGeometry y="26" width="170" height="26" as="geometry" />
        </mxCell>
        <mxCell id="ljMkYENFZzZCaW7aI6AF-44" value="employee_id INT FK" style="text;strokeColor=none;fillColor=none;align=left;verticalAlign=top;spacingLeft=4;spacingRight=4;overflow=hidden;rotatable=0;points=[[0,0.5],[1,0.5]];portConstraint=eastwest;whiteSpace=wrap;html=1;" parent="ljMkYENFZzZCaW7aI6AF-42" vertex="1">
          <mxGeometry y="52" width="170" height="26" as="geometry" />
        </mxCell>
        <mxCell id="ljMkYENFZzZCaW7aI6AF-142" value="path_name VARCHAR(100)&amp;nbsp;" style="text;strokeColor=none;fillColor=none;align=left;verticalAlign=top;spacingLeft=4;spacingRight=4;overflow=hidden;rotatable=0;points=[[0,0.5],[1,0.5]];portConstraint=eastwest;whiteSpace=wrap;html=1;" parent="ljMkYENFZzZCaW7aI6AF-42" vertex="1">
          <mxGeometry y="78" width="170" height="26" as="geometry" />
        </mxCell>
        <mxCell id="ljMkYENFZzZCaW7aI6AF-45" value="history" style="swimlane;fontStyle=0;childLayout=stackLayout;horizontal=1;startSize=26;fillColor=none;horizontalStack=0;resizeParent=1;resizeParentMax=0;resizeLast=0;collapsible=1;marginBottom=0;whiteSpace=wrap;html=1;direction=east;" parent="1" vertex="1">
          <mxGeometry x="-410" y="-1652" width="210" height="130" as="geometry" />
        </mxCell>
        <mxCell id="ljMkYENFZzZCaW7aI6AF-46" value="id SERIAL PK" style="text;strokeColor=none;fillColor=none;align=left;verticalAlign=top;spacingLeft=4;spacingRight=4;overflow=hidden;rotatable=0;points=[[0,0.5],[1,0.5]];portConstraint=eastwest;whiteSpace=wrap;html=1;" parent="ljMkYENFZzZCaW7aI6AF-45" vertex="1">
          <mxGeometry y="26" width="210" height="26" as="geometry" />
        </mxCell>
        <mxCell id="ljMkYENFZzZCaW7aI6AF-143" value="changed_object VARCHAR(50)" style="text;strokeColor=none;fillColor=none;align=left;verticalAlign=top;spacingLeft=4;spacingRight=4;overflow=hidden;rotatable=0;points=[[0,0.5],[1,0.5]];portConstraint=eastwest;whiteSpace=wrap;html=1;" parent="ljMkYENFZzZCaW7aI6AF-45" vertex="1">
          <mxGeometry y="52" width="210" height="26" as="geometry" />
        </mxCell>
        <mxCell id="ljMkYENFZzZCaW7aI6AF-47" value="change_date_and_time TIMESTAMP" style="text;strokeColor=none;fillColor=none;align=left;verticalAlign=top;spacingLeft=4;spacingRight=4;overflow=hidden;rotatable=0;points=[[0,0.5],[1,0.5]];portConstraint=eastwest;whiteSpace=wrap;html=1;" parent="ljMkYENFZzZCaW7aI6AF-45" vertex="1">
          <mxGeometry y="78" width="210" height="26" as="geometry" />
        </mxCell>
        <mxCell id="ljMkYENFZzZCaW7aI6AF-48" value="change_by_id INT FK" style="text;strokeColor=none;fillColor=none;align=left;verticalAlign=top;spacingLeft=4;spacingRight=4;overflow=hidden;rotatable=0;points=[[0,0.5],[1,0.5]];portConstraint=eastwest;whiteSpace=wrap;html=1;" parent="ljMkYENFZzZCaW7aI6AF-45" vertex="1">
          <mxGeometry y="104" width="210" height="26" as="geometry" />
        </mxCell>
        <mxCell id="ljMkYENFZzZCaW7aI6AF-59" value="" style="endArrow=none;html=1;edgeStyle=orthogonalEdgeStyle;rounded=0;exitX=0;exitY=0.5;exitDx=0;exitDy=0;entryX=1;entryY=0.5;entryDx=0;entryDy=0;" parent="1" source="ljMkYENFZzZCaW7aI6AF-19" target="ljMkYENFZzZCaW7aI6AF-12" edge="1">
          <mxGeometry relative="1" as="geometry">
            <mxPoint x="-1010" y="-1725" as="sourcePoint" />
            <mxPoint x="-800" y="-1840" as="targetPoint" />
          </mxGeometry>
        </mxCell>
        <mxCell id="ljMkYENFZzZCaW7aI6AF-60" value="*" style="edgeLabel;resizable=0;html=1;align=left;verticalAlign=bottom;" parent="ljMkYENFZzZCaW7aI6AF-59" connectable="0" vertex="1">
          <mxGeometry x="-1" relative="1" as="geometry">
            <mxPoint x="-10" as="offset" />
          </mxGeometry>
        </mxCell>
        <mxCell id="ljMkYENFZzZCaW7aI6AF-61" value="1" style="edgeLabel;resizable=0;html=1;align=right;verticalAlign=bottom;" parent="ljMkYENFZzZCaW7aI6AF-59" connectable="0" vertex="1">
          <mxGeometry x="1" relative="1" as="geometry">
            <mxPoint x="10" as="offset" />
          </mxGeometry>
        </mxCell>
        <mxCell id="ljMkYENFZzZCaW7aI6AF-71" value="" style="endArrow=none;html=1;edgeStyle=orthogonalEdgeStyle;rounded=0;exitX=0;exitY=0.5;exitDx=0;exitDy=0;entryX=1;entryY=0.5;entryDx=0;entryDy=0;" parent="1" source="ljMkYENFZzZCaW7aI6AF-33" target="ljMkYENFZzZCaW7aI6AF-6" edge="1">
          <mxGeometry relative="1" as="geometry">
            <mxPoint x="-870" y="-1573" as="sourcePoint" />
            <mxPoint x="-970" y="-1570" as="targetPoint" />
            <Array as="points">
              <mxPoint x="-700" y="-1359" />
              <mxPoint x="-700" y="-1600" />
              <mxPoint x="-1050" y="-1600" />
            </Array>
          </mxGeometry>
        </mxCell>
        <mxCell id="ljMkYENFZzZCaW7aI6AF-72" value="*" style="edgeLabel;resizable=0;html=1;align=left;verticalAlign=bottom;" parent="ljMkYENFZzZCaW7aI6AF-71" connectable="0" vertex="1">
          <mxGeometry x="-1" relative="1" as="geometry">
            <mxPoint x="-10" y="-7" as="offset" />
          </mxGeometry>
        </mxCell>
        <mxCell id="ljMkYENFZzZCaW7aI6AF-73" value="1" style="edgeLabel;resizable=0;html=1;align=right;verticalAlign=bottom;" parent="ljMkYENFZzZCaW7aI6AF-71" connectable="0" vertex="1">
          <mxGeometry x="1" relative="1" as="geometry">
            <mxPoint x="10" y="-6" as="offset" />
          </mxGeometry>
        </mxCell>
        <mxCell id="ljMkYENFZzZCaW7aI6AF-83" value="" style="endArrow=none;html=1;edgeStyle=orthogonalEdgeStyle;rounded=0;entryX=0;entryY=0.5;entryDx=0;entryDy=0;exitX=0;exitY=0.5;exitDx=0;exitDy=0;" parent="1" source="ljMkYENFZzZCaW7aI6AF-10" target="ljMkYENFZzZCaW7aI6AF-2" edge="1">
          <mxGeometry relative="1" as="geometry">
            <mxPoint x="-1390" y="-1583" as="sourcePoint" />
            <mxPoint x="-1480" y="-1520" as="targetPoint" />
            <Array as="points">
              <mxPoint x="-1310" y="-1490" />
              <mxPoint x="-1310" y="-1750" />
              <mxPoint x="-1170" y="-1750" />
            </Array>
          </mxGeometry>
        </mxCell>
        <mxCell id="ljMkYENFZzZCaW7aI6AF-84" value="*" style="edgeLabel;resizable=0;html=1;align=left;verticalAlign=bottom;" parent="ljMkYENFZzZCaW7aI6AF-83" connectable="0" vertex="1">
          <mxGeometry x="-1" relative="1" as="geometry">
            <mxPoint x="-10" as="offset" />
          </mxGeometry>
        </mxCell>
        <mxCell id="ljMkYENFZzZCaW7aI6AF-85" value="1" style="edgeLabel;resizable=0;html=1;align=right;verticalAlign=bottom;" parent="ljMkYENFZzZCaW7aI6AF-83" connectable="0" vertex="1">
          <mxGeometry x="1" relative="1" as="geometry">
            <mxPoint x="-10" as="offset" />
          </mxGeometry>
        </mxCell>
        <mxCell id="ljMkYENFZzZCaW7aI6AF-117" value="" style="endArrow=none;html=1;edgeStyle=orthogonalEdgeStyle;rounded=0;entryX=1;entryY=0.5;entryDx=0;entryDy=0;exitX=0;exitY=0.5;exitDx=0;exitDy=0;" parent="1" source="ljMkYENFZzZCaW7aI6AF-15" target="ljMkYENFZzZCaW7aI6AF-44" edge="1">
          <mxGeometry relative="1" as="geometry">
            <mxPoint x="-700.44" y="-1475.334" as="sourcePoint" />
            <mxPoint x="-780" y="-1535" as="targetPoint" />
            <Array as="points">
              <mxPoint x="-780" y="-1801" />
              <mxPoint x="-780" y="-1792" />
            </Array>
          </mxGeometry>
        </mxCell>
        <mxCell id="ljMkYENFZzZCaW7aI6AF-118" value="1" style="edgeLabel;resizable=0;html=1;align=left;verticalAlign=bottom;" parent="ljMkYENFZzZCaW7aI6AF-117" connectable="0" vertex="1">
          <mxGeometry x="-1" relative="1" as="geometry">
            <mxPoint x="-10" y="-5" as="offset" />
          </mxGeometry>
        </mxCell>
        <mxCell id="ljMkYENFZzZCaW7aI6AF-119" value="*" style="edgeLabel;resizable=0;html=1;align=right;verticalAlign=bottom;" parent="ljMkYENFZzZCaW7aI6AF-117" connectable="0" vertex="1">
          <mxGeometry x="1" relative="1" as="geometry">
            <mxPoint x="10" y="20" as="offset" />
          </mxGeometry>
        </mxCell>
        <mxCell id="fJwojF4uo3lJMWS2JPwV-3" value="" style="endArrow=none;html=1;edgeStyle=orthogonalEdgeStyle;rounded=0;entryX=0;entryY=0.5;entryDx=0;entryDy=0;exitX=0;exitY=0.5;exitDx=0;exitDy=0;" parent="1" source="fJwojF4uo3lJMWS2JPwV-22" target="ljMkYENFZzZCaW7aI6AF-48" edge="1">
          <mxGeometry relative="1" as="geometry">
            <mxPoint x="-410" y="-1810" as="sourcePoint" />
            <mxPoint x="-1280" y="-1312" as="targetPoint" />
            <Array as="points">
              <mxPoint x="-430" y="-1811" />
              <mxPoint x="-430" y="-1535" />
            </Array>
          </mxGeometry>
        </mxCell>
        <mxCell id="fJwojF4uo3lJMWS2JPwV-4" value="1" style="edgeLabel;resizable=0;html=1;align=left;verticalAlign=bottom;" parent="fJwojF4uo3lJMWS2JPwV-3" connectable="0" vertex="1">
          <mxGeometry x="-1" relative="1" as="geometry">
            <mxPoint x="-20" y="-9" as="offset" />
          </mxGeometry>
        </mxCell>
        <mxCell id="fJwojF4uo3lJMWS2JPwV-5" value="*" style="edgeLabel;resizable=0;html=1;align=right;verticalAlign=bottom;" parent="fJwojF4uo3lJMWS2JPwV-3" connectable="0" vertex="1">
          <mxGeometry x="1" relative="1" as="geometry">
            <mxPoint x="-7" as="offset" />
          </mxGeometry>
        </mxCell>
        <mxCell id="fJwojF4uo3lJMWS2JPwV-21" value="users" style="swimlane;fontStyle=0;childLayout=stackLayout;horizontal=1;startSize=26;fillColor=none;horizontalStack=0;resizeParent=1;resizeParentMax=0;resizeLast=0;collapsible=1;marginBottom=0;whiteSpace=wrap;html=1;direction=east;" parent="1" vertex="1">
          <mxGeometry x="-390" y="-1870" width="230" height="208" as="geometry" />
        </mxCell>
        <mxCell id="fJwojF4uo3lJMWS2JPwV-22" value="id SERIAL PK" style="text;strokeColor=none;fillColor=none;align=left;verticalAlign=top;spacingLeft=4;spacingRight=4;overflow=hidden;rotatable=0;points=[[0,0.5],[1,0.5]];portConstraint=eastwest;whiteSpace=wrap;html=1;" parent="fJwojF4uo3lJMWS2JPwV-21" vertex="1">
          <mxGeometry y="26" width="230" height="26" as="geometry" />
        </mxCell>
        <mxCell id="o4lQjG5ljFQk4gjumeXX-1" value="name VARCHAR(50)" style="text;strokeColor=none;fillColor=none;align=left;verticalAlign=top;spacingLeft=4;spacingRight=4;overflow=hidden;rotatable=0;points=[[0,0.5],[1,0.5]];portConstraint=eastwest;whiteSpace=wrap;html=1;" vertex="1" parent="fJwojF4uo3lJMWS2JPwV-21">
          <mxGeometry y="52" width="230" height="26" as="geometry" />
        </mxCell>
        <mxCell id="o4lQjG5ljFQk4gjumeXX-2" value="surname VARCHAR(50)" style="text;strokeColor=none;fillColor=none;align=left;verticalAlign=top;spacingLeft=4;spacingRight=4;overflow=hidden;rotatable=0;points=[[0,0.5],[1,0.5]];portConstraint=eastwest;whiteSpace=wrap;html=1;" vertex="1" parent="fJwojF4uo3lJMWS2JPwV-21">
          <mxGeometry y="78" width="230" height="26" as="geometry" />
        </mxCell>
        <mxCell id="o4lQjG5ljFQk4gjumeXX-3" value="patronymic VARCHAR(50)" style="text;strokeColor=none;fillColor=none;align=left;verticalAlign=top;spacingLeft=4;spacingRight=4;overflow=hidden;rotatable=0;points=[[0,0.5],[1,0.5]];portConstraint=eastwest;whiteSpace=wrap;html=1;" vertex="1" parent="fJwojF4uo3lJMWS2JPwV-21">
          <mxGeometry y="104" width="230" height="26" as="geometry" />
        </mxCell>
        <mxCell id="o4lQjG5ljFQk4gjumeXX-4" value="login VARCHAR(50)" style="text;strokeColor=none;fillColor=none;align=left;verticalAlign=top;spacingLeft=4;spacingRight=4;overflow=hidden;rotatable=0;points=[[0,0.5],[1,0.5]];portConstraint=eastwest;whiteSpace=wrap;html=1;" vertex="1" parent="fJwojF4uo3lJMWS2JPwV-21">
          <mxGeometry y="130" width="230" height="26" as="geometry" />
        </mxCell>
        <mxCell id="o4lQjG5ljFQk4gjumeXX-5" value="password VARCHAR(50)" style="text;strokeColor=none;fillColor=none;align=left;verticalAlign=top;spacingLeft=4;spacingRight=4;overflow=hidden;rotatable=0;points=[[0,0.5],[1,0.5]];portConstraint=eastwest;whiteSpace=wrap;html=1;" vertex="1" parent="fJwojF4uo3lJMWS2JPwV-21">
          <mxGeometry y="156" width="230" height="26" as="geometry" />
        </mxCell>
        <mxCell id="fJwojF4uo3lJMWS2JPwV-23" value="role VARCHAR(50)" style="text;strokeColor=none;fillColor=none;align=left;verticalAlign=top;spacingLeft=4;spacingRight=4;overflow=hidden;rotatable=0;points=[[0,0.5],[1,0.5]];portConstraint=eastwest;whiteSpace=wrap;html=1;" parent="fJwojF4uo3lJMWS2JPwV-21" vertex="1">
          <mxGeometry y="182" width="230" height="26" as="geometry" />
        </mxCell>
        <mxCell id="fJwojF4uo3lJMWS2JPwV-30" value="" style="endArrow=none;html=1;edgeStyle=orthogonalEdgeStyle;rounded=0;entryX=1;entryY=0.5;entryDx=0;entryDy=0;exitX=0;exitY=0.5;exitDx=0;exitDy=0;" parent="1" source="ljMkYENFZzZCaW7aI6AF-15" target="fJwojF4uo3lJMWS2JPwV-10" edge="1">
          <mxGeometry relative="1" as="geometry">
            <mxPoint x="-680" y="-1800" as="sourcePoint" />
            <mxPoint x="-730" y="-1548" as="targetPoint" />
            <Array as="points">
              <mxPoint x="-700" y="-1801" />
              <mxPoint x="-700" y="-1770" />
              <mxPoint x="-730" y="-1770" />
              <mxPoint x="-730" y="-1479" />
            </Array>
          </mxGeometry>
        </mxCell>
        <mxCell id="fJwojF4uo3lJMWS2JPwV-31" value="1" style="edgeLabel;resizable=0;html=1;align=left;verticalAlign=bottom;" parent="fJwojF4uo3lJMWS2JPwV-30" connectable="0" vertex="1">
          <mxGeometry x="-1" relative="1" as="geometry">
            <mxPoint x="-10" y="21" as="offset" />
          </mxGeometry>
        </mxCell>
        <mxCell id="fJwojF4uo3lJMWS2JPwV-32" value="*" style="edgeLabel;resizable=0;html=1;align=right;verticalAlign=bottom;" parent="fJwojF4uo3lJMWS2JPwV-30" connectable="0" vertex="1">
          <mxGeometry x="1" relative="1" as="geometry">
            <mxPoint x="10" y="-6" as="offset" />
          </mxGeometry>
        </mxCell>
        <mxCell id="fJwojF4uo3lJMWS2JPwV-46" value="history_changed_fields" style="swimlane;fontStyle=0;childLayout=stackLayout;horizontal=1;startSize=26;fillColor=none;horizontalStack=0;resizeParent=1;resizeParentMax=0;resizeLast=0;collapsible=1;marginBottom=0;whiteSpace=wrap;html=1;direction=east;" parent="1" vertex="1">
          <mxGeometry x="-423" y="-1475" width="210" height="156" as="geometry" />
        </mxCell>
        <mxCell id="fJwojF4uo3lJMWS2JPwV-47" value="id SERIAL PK" style="text;strokeColor=none;fillColor=none;align=left;verticalAlign=top;spacingLeft=4;spacingRight=4;overflow=hidden;rotatable=0;points=[[0,0.5],[1,0.5]];portConstraint=eastwest;whiteSpace=wrap;html=1;" parent="fJwojF4uo3lJMWS2JPwV-46" vertex="1">
          <mxGeometry y="26" width="210" height="26" as="geometry" />
        </mxCell>
        <mxCell id="fJwojF4uo3lJMWS2JPwV-48" value="history_id INT PK" style="text;strokeColor=none;fillColor=none;align=left;verticalAlign=top;spacingLeft=4;spacingRight=4;overflow=hidden;rotatable=0;points=[[0,0.5],[1,0.5]];portConstraint=eastwest;whiteSpace=wrap;html=1;" parent="fJwojF4uo3lJMWS2JPwV-46" vertex="1">
          <mxGeometry y="52" width="210" height="26" as="geometry" />
        </mxCell>
        <mxCell id="fJwojF4uo3lJMWS2JPwV-49" value="field_name VARCHAR(50)" style="text;strokeColor=none;fillColor=none;align=left;verticalAlign=top;spacingLeft=4;spacingRight=4;overflow=hidden;rotatable=0;points=[[0,0.5],[1,0.5]];portConstraint=eastwest;whiteSpace=wrap;html=1;" parent="fJwojF4uo3lJMWS2JPwV-46" vertex="1">
          <mxGeometry y="78" width="210" height="26" as="geometry" />
        </mxCell>
        <mxCell id="fJwojF4uo3lJMWS2JPwV-50" value="last_value TEXT" style="text;strokeColor=none;fillColor=none;align=left;verticalAlign=top;spacingLeft=4;spacingRight=4;overflow=hidden;rotatable=0;points=[[0,0.5],[1,0.5]];portConstraint=eastwest;whiteSpace=wrap;html=1;" parent="fJwojF4uo3lJMWS2JPwV-46" vertex="1">
          <mxGeometry y="104" width="210" height="26" as="geometry" />
        </mxCell>
        <mxCell id="fJwojF4uo3lJMWS2JPwV-51" value="new_value TEXT" style="text;strokeColor=none;fillColor=none;align=left;verticalAlign=top;spacingLeft=4;spacingRight=4;overflow=hidden;rotatable=0;points=[[0,0.5],[1,0.5]];portConstraint=eastwest;whiteSpace=wrap;html=1;" parent="fJwojF4uo3lJMWS2JPwV-46" vertex="1">
          <mxGeometry y="130" width="210" height="26" as="geometry" />
        </mxCell>
        <mxCell id="fJwojF4uo3lJMWS2JPwV-52" value="" style="endArrow=none;html=1;edgeStyle=orthogonalEdgeStyle;rounded=0;exitX=1;exitY=0.5;exitDx=0;exitDy=0;entryX=1;entryY=0.5;entryDx=0;entryDy=0;" parent="1" source="ljMkYENFZzZCaW7aI6AF-46" target="fJwojF4uo3lJMWS2JPwV-48" edge="1">
          <mxGeometry relative="1" as="geometry">
            <mxPoint x="-80.02999999999997" y="-1702.02" as="sourcePoint" />
            <mxPoint x="-170" y="-1380" as="targetPoint" />
            <Array as="points">
              <mxPoint x="-180" y="-1613" />
              <mxPoint x="-180" y="-1410" />
            </Array>
          </mxGeometry>
        </mxCell>
        <mxCell id="fJwojF4uo3lJMWS2JPwV-53" value="1" style="edgeLabel;resizable=0;html=1;align=left;verticalAlign=bottom;" parent="fJwojF4uo3lJMWS2JPwV-52" connectable="0" vertex="1">
          <mxGeometry x="-1" relative="1" as="geometry">
            <mxPoint x="10" y="-7" as="offset" />
          </mxGeometry>
        </mxCell>
        <mxCell id="fJwojF4uo3lJMWS2JPwV-54" value="*" style="edgeLabel;resizable=0;html=1;align=right;verticalAlign=bottom;" parent="fJwojF4uo3lJMWS2JPwV-52" connectable="0" vertex="1">
          <mxGeometry x="1" relative="1" as="geometry">
            <mxPoint x="13" as="offset" />
          </mxGeometry>
        </mxCell>
        <mxCell id="fJwojF4uo3lJMWS2JPwV-56" value="" style="endArrow=none;html=1;edgeStyle=orthogonalEdgeStyle;rounded=0;exitX=0;exitY=0.5;exitDx=0;exitDy=0;entryX=0;entryY=0.5;entryDx=0;entryDy=0;" parent="1" source="fJwojF4uo3lJMWS2JPwV-8" target="ljMkYENFZzZCaW7aI6AF-12" edge="1">
          <mxGeometry relative="1" as="geometry">
            <mxPoint x="-995" y="-1346" as="sourcePoint" />
            <mxPoint x="-1080" y="-1519" as="targetPoint" />
            <Array as="points">
              <mxPoint x="-990" y="-1401" />
              <mxPoint x="-990" y="-1672" />
            </Array>
          </mxGeometry>
        </mxCell>
        <mxCell id="fJwojF4uo3lJMWS2JPwV-57" value="*" style="edgeLabel;resizable=0;html=1;align=left;verticalAlign=bottom;" parent="fJwojF4uo3lJMWS2JPwV-56" connectable="0" vertex="1">
          <mxGeometry x="-1" relative="1" as="geometry">
            <mxPoint x="-15" y="-3" as="offset" />
          </mxGeometry>
        </mxCell>
        <mxCell id="fJwojF4uo3lJMWS2JPwV-58" value="1" style="edgeLabel;resizable=0;html=1;align=right;verticalAlign=bottom;" parent="fJwojF4uo3lJMWS2JPwV-56" connectable="0" vertex="1">
          <mxGeometry x="1" relative="1" as="geometry">
            <mxPoint x="10" y="20" as="offset" />
          </mxGeometry>
        </mxCell>
      </root>
    </mxGraphModel>
  </diagram>
</mxfile>
